<svg width="24" height="24" viewBox="0 0 24 24" fill="none" xmlns="http://www.w3.org/2000/svg">
<path d="M21.4102 8.63988V8.58988C20.7056 6.6661 19.4271 5.00516 17.7477 3.83174C16.0683 2.65832 14.0689 2.02905 12.0202 2.02905C9.97145 2.02905 7.97213 2.65832 6.29271 3.83174C4.61328 5.00516 3.3348 6.6661 2.6302 8.58988C2.6302 8.58988 2.6302 8.58988 2.6302 8.63988C1.84332 10.8108 1.84332 13.189 2.6302 15.3599V15.4099C3.3348 17.3337 4.61328 18.9946 6.29271 20.168C7.97213 21.3414 9.97145 21.9707 12.0202 21.9707C14.0689 21.9707 16.0683 21.3414 17.7477 20.168C19.4271 18.9946 20.7056 17.3337 21.4102 15.4099C21.4102 15.4099 21.4102 15.4099 21.4102 15.3599C22.1971 13.189 22.1971 10.8108 21.4102 8.63988ZM4.2602 13.9999C3.9125 12.6892 3.9125 11.3105 4.2602 9.99988H6.1202C5.95994 11.3284 5.95994 12.6714 6.1202 13.9999H4.2602ZM5.0802 15.9999H6.4802C6.71366 16.8921 7.04921 17.7545 7.4802 18.5699C6.49949 17.9018 5.67969 17.0239 5.0802 15.9999ZM6.4802 7.99988H5.0802C5.67107 6.97897 6.48039 6.10135 7.4502 5.42988C7.02955 6.24659 6.70409 7.10891 6.4802 7.99988ZM11.0002 19.6999C9.77196 18.7986 8.90934 17.4851 8.5702 15.9999H11.0002V19.6999ZM11.0002 13.9999H8.1402C7.95411 12.673 7.95411 11.3267 8.1402 9.99988H11.0002V13.9999ZM11.0002 7.99988H8.5702C8.90934 6.51465 9.77196 5.2012 11.0002 4.29988V7.99988ZM18.9202 7.99988H17.5202C17.2867 7.10763 16.9512 6.24527 16.5202 5.42988C17.5009 6.09795 18.3207 6.97582 18.9202 7.99988ZM13.0002 4.29988C14.2284 5.2012 15.091 6.51465 15.4302 7.99988H13.0002V4.29988ZM13.0002 19.6999V15.9999H15.4302C15.091 17.4851 14.2284 18.7986 13.0002 19.6999ZM15.8602 13.9999H13.0002V9.99988H15.8602C16.0463 11.3267 16.0463 12.673 15.8602 13.9999ZM16.5502 18.5699C16.9812 17.7545 17.3167 16.8921 17.5502 15.9999H18.9502C18.3507 17.0239 17.5309 17.9018 16.5502 18.5699ZM19.7402 13.9999H17.8802C17.9619 13.3364 18.002 12.6684 18.0002 11.9999C18.002 11.3314 17.9619 10.6634 17.8802 9.99988H19.7402C20.0879 11.3105 20.0879 12.6892 19.7402 13.9999Z" fill="#004AAD"/>
</svg>
