<svg width="24" height="24" viewBox="0 0 24 24" fill="none" xmlns="http://www.w3.org/2000/svg">
<path d="M20 11C19.8 11 19.6 11 19.5 11.1L17.4 9H20V6L16.3 7.9L13.4 5H9V7H12.6L14.6 9H11L7 11L5 9H0V11H4C1.8 11 0 12.8 0 15C0 17.2 1.8 19 4 19C6.2 19 8 17.2 8 15L10 17H13L16.5 10.9L17.5 11.9C16.6 12.6 16 13.8 16 15C16 17.2 17.8 19 20 19C22.2 19 24 17.2 24 15C24 12.8 22.2 11 20 11ZM4 17C2.9 17 2 16.1 2 15C2 13.9 2.9 13 4 13C5.1 13 6 13.9 6 15C6 16.1 5.1 17 4 17ZM20 17C18.9 17 18 16.1 18 15C18 13.9 18.9 13 20 13C21.1 13 22 13.9 22 15C22 16.1 21.1 17 20 17Z" fill="#004AAD"/>
</svg>
