<svg width="20" height="20" viewBox="0 0 20 20" fill="none" xmlns="http://www.w3.org/2000/svg">
<g clip-path="url(#clip0_174_1834)">
<path d="M10 0L12.5 3.75H11.25V6.25H8.75V3.75H7.5L10 0ZM1.25 18.75V8.75L18.75 8.75V18.75L1.25 18.75ZM0 20L20 20V7.5L0 7.5V20Z" fill="#004AAD"/>
<path d="M10 17.5C9.00544 17.5 8.05161 17.1049 7.34835 16.4017C6.64509 15.6984 6.25 14.7446 6.25 13.75C6.25 12.7554 6.64509 11.8016 7.34835 11.0983C8.05161 10.3951 9.00544 10 10 10L3.75 10L3.75 11.25H2.5V16.25H3.75V17.5H10ZM13.75 13.75C13.75 14.7446 13.3549 15.6984 12.6517 16.4017C11.9484 17.1049 10.9946 17.5 10 17.5H16.25V16.25H17.5V11.25H16.25V10H10C10.9946 10 11.9484 10.3951 12.6517 11.0983C13.3549 11.8016 13.75 12.7554 13.75 13.75Z" fill="#004AAD"/>
</g>
<defs>
<clipPath id="clip0_174_1834">
<rect width="20" height="20" fill="white" transform="matrix(-1 0 0 -1 20 20)"/>
</clipPath>
</defs>
</svg>
