<svg width="18" height="20" viewBox="0 0 18 20" fill="none" xmlns="http://www.w3.org/2000/svg">
<path d="M11.9998 17.5C12 18.0046 11.8094 18.4906 11.4664 18.8605C11.1233 19.2305 10.653 19.4572 10.1498 19.495L9.99985 19.5H7.99985C7.49527 19.5002 7.00928 19.3096 6.6393 18.9665C6.26932 18.6234 6.04269 18.1532 6.00485 17.65L5.99985 17.5H11.9998ZM8.99985 0.5C10.8148 0.49997 12.5589 1.20489 13.8641 2.46607C15.1693 3.72726 15.9336 5.44609 15.9958 7.26L15.9998 7.5V11.264L17.8218 14.908C17.9014 15.067 17.9412 15.2429 17.9378 15.4206C17.9345 15.5984 17.8881 15.7727 17.8027 15.9286C17.7173 16.0845 17.5953 16.2174 17.4473 16.3158C17.2993 16.4143 17.1297 16.4754 16.9528 16.494L16.8378 16.5H1.16185C0.984013 16.5001 0.808815 16.457 0.651269 16.3745C0.493724 16.292 0.358527 16.1725 0.257266 16.0264C0.156004 15.8802 0.0916959 15.7116 0.0698528 15.5351C0.0480097 15.3586 0.0692826 15.1795 0.131849 15.013L0.177849 14.908L1.99985 11.264V7.5C1.99985 5.64348 2.73735 3.86301 4.0501 2.55025C5.36286 1.2375 7.14333 0.5 8.99985 0.5Z" fill="black"/>
</svg>
