<svg width="20" height="20" viewBox="0 0 20 20" fill="none" xmlns="http://www.w3.org/2000/svg">
<g clip-path="url(#clip0_174_1829)">
<path d="M10 20L7.5 16.25H8.75V13.75H11.25V16.25H12.5L10 20ZM18.75 1.25V11.25H1.25V1.25H18.75ZM20 0H0V12.5H20V0Z" fill="#004AAD"/>
<path d="M10 2.5C10.9946 2.5 11.9484 2.89509 12.6517 3.59835C13.3549 4.30161 13.75 5.25544 13.75 6.25C13.75 7.24456 13.3549 8.19839 12.6517 8.90165C11.9484 9.60491 10.9946 10 10 10H16.25V8.75H17.5V3.75H16.25V2.5H10ZM6.25 6.25C6.25 5.25544 6.64509 4.30161 7.34835 3.59835C8.05161 2.89509 9.00544 2.5 10 2.5H3.75V3.75H2.5V8.75H3.75V10H10C9.00544 10 8.05161 9.60491 7.34835 8.90165C6.64509 8.19839 6.25 7.24456 6.25 6.25Z" fill="#004AAD"/>
</g>
<defs>
<clipPath id="clip0_174_1829">
<rect width="20" height="20" fill="white"/>
</clipPath>
</defs>
</svg>
